<svg viewBox="0 0 500 320" xmlns="http://www.w3.org/2000/svg" fill-rule="evenodd" clip-rule="evenodd" stroke-miterlimit="10"><path d="M422.507 246.34l32.861 71.027 3.703-.011-28.415-75.629-8.149 4.613zm-33.99 1.518l-32.861 69.51-3.703-.012 28.415-71.075 8.149 1.577z" fill="#dca86e" fill-rule="nonzero"/><path d="M286.819 303.716c-11.491-3.06-18.194-.812-18.194-.812l19.692 13.858 16.703-14.616-6.441-8.312-11.76 9.882z" fill="url(#_Linear1)" fill-rule="nonzero"/><path d="M401.706 221.526s-36.915 18.921-49.957 24.582c-13.042 5.66-57.412 50.093-57.412 50.093s5.681 11.567 8.521 9.536c25.053-17.913 48.133-33.94 62.965-39.532 29.369-11.074 37.555-13.482 45.077-22.2 0 0-4.412-10.478-9.194-22.479" fill="#2167be" fill-rule="nonzero"/><path d="M330.449 306.722c-11.074 4.333-15.147 10.112-15.147 10.112l24.074-.482 4.814-21.666-10.11-2.888-3.631 14.924z" fill="url(#_Linear2)" fill-rule="nonzero"/><path d="M402.602 216.722s-34.338 3.704-46.855 10.444c-12.519 6.742-22.483 68.556-22.483 68.556s9.723 5.278 10.927 2c9.71-26.441 20.482-47.15 20.482-47.15 12.338-2.254 40.915 11.653 61.57-8.692 0 0-17.863-13.603-23.641-25.158" fill="#277fd9" fill-rule="nonzero"/><path d="M461.772 174.983s-2.48 4.105-4.043 9.248l-14.125-1.305s7.293-11.049 6.734-17.75l11.434 9.807z" fill="#fec4ad" fill-rule="nonzero"/><path d="M458.734 152.155c-.802-.212-3.82-1.044-4.431-.795-.847.346.138 1.456-.459 2.134-.964 1.098-2.896 1.121-4.141 1.788-1.509.808-2.659 1.87-3.349 3.083-1.15 2.021 3.038 6.532 3.694 9.913 1.372 7.072 10.311 8.118 17.574 5.953 2.596-.774 4.984-3.109 6.4-5.374 1.664-2.661.726-7.111-.668-9.762-.836-1.589-2.492-2.96-3.937-3.957-1.31-.903-1.672-4.658-3.249-4.924 0 0-5.628 2.42-7.434 1.941" fill="#fec4ad" fill-rule="nonzero"/><path d="M463.727 144.393c-.885.75-1.307 1.278-1.335 2.517-.125 5.454 4.755 10.532 8.449 13.967 1.085 1.011-.287.904-1.828.798-.814-.056-1.677-.113-2.246-.004-1.073.205-3.855 3.144-4.453 3.588.896 1.116 1.736 1.004 2.689.891.693-.082 1.448-.163 2.328.229 1.93.86.706 3.317-1.092 3.607-2.786.45-3.92-1.388-3.92-1.388-1.276.694-1.482 4.831-2.484 5.913 1.384.76 9.458 2.179 11.353 2.157 4.045-.049 6.525-2.287 7.826-5.527.015.014-.245-1.186 1.804-3.115 6.776-6.379-.471-18.859-7.856-21.033-3.777-1.111-6.192.06-7.547-3.694.097.269-1.527.958-1.688 1.094z" fill="url(#_Linear3)" fill-rule="nonzero"/><path d="M461.315 177.181c2.961 33.03-35.072 64.699-35.072 64.699s-24.834.935-23.642-25.158c0 0 1.933-4.745 17.308-18.678 10.271-9.308 17.487-23.2 24.715-22.924 19.74.756 16.691 2.061 16.691 2.061" fill="#ff5e69" fill-rule="nonzero"/><path d="M422.498 240.667c-30.525 11.578-53.429 3.036-53.429 3.036v3.826s21.46 11.805 52.186 1.893c40.19-12.965 43.589-72.63 43.589-72.63l-3.492-1.771s-8.327 54.067-38.854 65.646z" fill="url(#_Linear4)" fill-rule="nonzero"/><path d="M457.64 210.176s3.657 12.673 3.86 18.99c.204 6.317-2.496 27.762-2.496 27.762l5.818.736s5.17-25.56 5.292-33.902c.12-8.341-4.69-21.856-4.69-21.856l-7.784 8.27z" fill="#f8d2a1" fill-rule="nonzero"/><path d="M457.276 210.711c4.224 18.455 2.473 43.188 2.473 43.188l6.313.403c6.921-14.478 6.273-46.555 2.613-60.051-2.15-7.93-3.417-15.924-8.782-17.157-3.354-.771-10.254 1.684-11.178 4.999-2.005 7.193 6.489 19.565 8.561 28.618" fill="#ff5e69" fill-rule="nonzero"/><path d="M456.401 260.117c-1.394 2.653-2.024 4.598-1.204 5.268.566.461 1.477-2.115 2.578-3.034.323 1.074.366 3.078-.32 4.766-.778 1.913-.709 3.549.744 3.689 1.453.141 3.817.045 4.344-1.16.524-1.204 1.719-6.228 2.366-7.9.645-1.672-.211-3.593.035-4.55.246-.958-4.293-2.56-4.293-2.56-.249.384-1.647 2.292-1.647 2.292s-1.179 1.411-1.584 1.668c-.407.256-1.019 1.521-1.019 1.521" fill="#f8d2a1" fill-rule="nonzero"/><path d="M421.941.73v43.999" fill="none" stroke="#d4dbe2" stroke-width=".25"/><path d="M429.733 61.65a7.718 7.718 0 11-15.39-1.188 7.718 7.718 0 0115.39 1.188" fill="#ffba01" fill-rule="nonzero"/><path d="M458.378 64.332h-72.873l31.893-23.208h9.087l31.893 23.208z" fill="#d2dceb" fill-rule="nonzero"/><path d="M78.876.73l-.001 43.999" fill="none" stroke="#d4dbe2" stroke-width=".25"/><path d="M86.667 61.65a7.717 7.717 0 11-15.39-1.187 7.717 7.717 0 0115.39 1.187" fill="#ffba01" fill-rule="nonzero"/><path d="M115.313 64.332H42.438l31.894-23.208h9.087l31.893 23.208z" fill="#d2dceb" fill-rule="nonzero"/><path d="M0 317.02h498.318" fill="none" stroke="#a6aeba" stroke-width=".5"/><path d="M181.147 163.931s1.538-3.763 4.331-7.117c2.793-3.353 6.957-8.936 6.957-8.936s-2.031 3.974-4.788 8.464-6.5 7.589-6.5 7.589m2.888-6.543s3.092-2.43 4.949-7.572a176.328 176.328 0 013.549-9.058s-4.011 5.737-5.735 9.714c-1.724 3.977-2.763 6.916-2.763 6.916m-2.68 5.815s1.618-5.882 1.935-10.577c.318-4.695.282-7.644.282-7.644s-2.04 8.519-2.655 12.137c-.615 3.618.438 6.084.438 6.084m-1.384 3.905s.518-6.058-1.186-11.478c-1.702-5.419-1.795-8.859-1.795-8.859s-.817 5.673.153 10.565c.971 4.891 2.828 9.772 2.828 9.772m.501-1.338s4.303-3.675 6.478-4.54c2.175-.864 5.204-3.383 5.204-3.383s-3.739 4.786-5.826 5.735c-2.087.948-5.856 2.188-5.856 2.188m-1.485 5.142s.417-3.308-1.506-7.996c-1.923-4.687-2.368-7.005-2.368-7.005s-.114 6.364 1.151 8.752c1.265 2.388 2.723 6.249 2.723 6.249m.402-2.409s2.473-1.65 4.857-1.985c2.384-.335 3.02-.659 3.02-.659s-1.206 2.203-4.146 2.575c-2.94.371-3.731.069-3.731.069" fill="#50cc85" fill-rule="nonzero"/><path d="M177.772 174.068c.534-2.08 1.223-5.295 1.931-7.444 1.566-4.742 5.29-10.852 5.29-10.852-2.275 5.045-3.935 7.881-5.079 12.232-.454 1.724-1.237 4.117-1.661 5.681-.068.428-.411.788-.481.383" fill="#50cc85" fill-rule="nonzero"/><path d="M178.87 165.627s-.244-4.315-1.891-8.652c-1.648-4.337-3.902-11.389-3.902-11.389s.667 4.697 1.885 10.164 3.908 9.877 3.908 9.877m-.64-7.577s-2.268-3.512-2.355-9.323c-.088-5.811-.435-10.333-.435-10.333s2.048 7.155 2.405 11.749c.357 4.594.385 7.907.385 7.907m.682 6.772s.409-6.472 1.714-11.301c1.305-4.83 2.36-7.781 2.36-7.781s-.896 9.269-1.529 13.118c-.633 3.85-2.545 5.964-2.545 5.964m.041 4.405s1.575-6.269 5.162-11.127c3.586-4.859 4.869-8.284 4.869-8.284s-1.141 5.985-3.808 10.566c-2.668 4.58-6.223 8.845-6.223 8.845m-.041-1.519s-3.054-5.183-4.941-6.804c-1.888-1.621-4.06-5.201-4.06-5.201s2.102 6.104 3.872 7.779c1.769 1.676 5.129 4.226 5.129 4.226m-.287 5.682s.726-3.47 4.28-7.516c3.553-4.046 4.803-6.222 4.803-6.222s-2.086 6.436-4.185 8.399c-2.097 1.962-4.898 5.339-4.898 5.339m.43-2.561s-1.915-2.514-4.196-3.675c-2.281-1.161-2.807-1.707-2.807-1.707s.449 2.632 3.276 4.022c2.827 1.391 3.727 1.36 3.727 1.36" fill="#77e6a6" fill-rule="nonzero"/><path d="M178.755 176.983c.183-2.275.603-5.745.633-8.15.068-5.308-1.562-12.738-1.562-12.738.541 5.858 1.229 9.284.874 14.052-.141 1.89-.181 4.566-.297 6.285-.078.454.142.934.352.551m-3.157-10.462s-1.538-3.764-4.331-7.117-6.957-8.936-6.957-8.936 2.031 3.974 4.788 8.464 6.5 7.589 6.5 7.589m-2.888-6.543c-.001 0-3.093-2.43-4.95-7.572a175.72 175.72 0 00-3.55-9.058s4.012 5.737 5.736 9.714c1.725 3.977 2.763 6.916 2.763 6.916m2.681 5.815s-1.618-5.882-1.936-10.577c-.317-4.696-.282-7.644-.282-7.644s2.04 8.519 2.655 12.137c.616 3.618-.437 6.084-.437 6.084" fill="#50cc85" fill-rule="nonzero"/><path d="M176.774 169.698s-.518-6.058 1.185-11.478c1.703-5.419 1.795-8.859 1.795-8.859s.818 5.673-.152 10.565c-.971 4.891-2.828 9.772-2.828 9.772m-.502-1.339s-4.304-3.675-6.479-4.54c-2.173-.864-5.202-3.383-5.202-3.383s3.738 4.786 5.826 5.735c2.085.948 5.856 2.188 5.856 2.188m1.484 5.142s-.417-3.308 1.506-7.995 2.368-7.005 2.368-7.005.114 6.363-1.151 8.751c-1.265 2.388-2.723 6.249-2.723 6.249m-.402-2.409s-2.473-1.65-4.857-1.985c-2.384-.334-3.02-.658-3.02-.658s1.206 2.203 4.146 2.574c2.94.372 3.731.069 3.731.069" fill="#50cc85" fill-rule="nonzero"/><path d="M178.973 176.658c-.534-2.08-1.223-5.295-1.932-7.443-1.565-4.743-5.289-10.852-5.289-10.852 2.275 5.044 3.936 7.88 5.079 12.231.454 1.724 1.237 4.117 1.661 5.681.068.428.411.788.481.383" fill="#50cc85" fill-rule="nonzero"/><path d="M184.437 191.182H172.77l-3.605-20.55h19.297l-4.025 20.55z" fill="#d2dceb" fill-rule="nonzero"/><path d="M317.732 196.827l19.24 120.306 3.703-.011-15.223-120.319-7.721.024zm-132.639.056l-25.059 120.425-4.99.012 19.647-120.413 10.402-.024z" fill="#dca86e" fill-rule="nonzero"/><path fill="#dca86e" d="M145.647 189.796h207.025v9.265H145.647z"/><path fill="#f3ba7a" d="M135.72 189.796h226.877v6.15H135.72z"/><path d="M299.152 186.552H291.1l-8.052-51.376h6.122l9.982 51.376z" fill="#a6aeba" fill-rule="nonzero"/><path d="M296.841 186.552h-31.428l-8.051-51.376h31.427l8.052 51.376z" fill="#d2dceb" fill-rule="nonzero"/><path fill="#d2dceb" d="M264.991 185.388h34.161v3.833h-34.161z"/><path fill="#a6aeba" d="M299.152 185.388h43.073v3.833h-43.073z"/><path d="M279.581 163.363c.909 3.933.269 8.18-1.431 9.487-1.699 1.307-3.813-.822-4.723-4.755-.909-3.933-.27-8.18 1.429-9.487 1.7-1.307 3.815.822 4.725 4.755m-48.888 25.678h-4.458a3.735 3.735 0 01-3.691-3.162l-1.781-11.471h15.402l-1.781 11.471a3.734 3.734 0 01-3.691 3.162" fill="#a6aeba" fill-rule="nonzero"/><path d="M234.656 185.192c2.813.09 3.7-2.067 4.034-3.917.221-1.226.046-2.19-.518-2.864-.543-.65-1.457-1.023-2.51-1.023-1.662 0-3.015 1.799-3.015 4.011 0 1.861 1.512 3.351 2.009 3.793m.168 1.405c-.163 0-.325-.006-.493-.019l-.208-.016-.166-.128c-.112-.084-2.713-2.12-2.713-5.035 0-2.984 1.982-5.414 4.418-5.414 1.469 0 2.777.556 3.587 1.525.579.693 1.193 1.953.822 4.013-.586 3.249-2.487 5.074-5.247 5.074" fill="#a6aeba" fill-rule="nonzero"/><path d="M219.229 190.048h19.52l3.113-3.447h-25.746l3.113 3.447z" fill="#d2dceb" fill-rule="nonzero"/><path fill="#b6bfcc" d="M22.388 115.058h93.404v202.036H22.388z"/><path fill="#d2dceb" d="M33.141 123.885h71.899v21.185H33.141z"/><path d="M77.69 137.045H60.492a.8.8 0 01-.8-.8v-3.536a.8.8 0 01.8-.8H77.69a.8.8 0 01.8.8v3.536a.8.8 0 01-.8.8" fill="#fff" fill-rule="nonzero"/><path fill="#d2dceb" d="M33.141 150.844h71.899v21.185H33.141z"/><path d="M77.69 164.004H60.492a.8.8 0 01-.8-.8v-3.536a.8.8 0 01.8-.8H77.69c.441 0 .8.359.8.8v3.536a.8.8 0 01-.8.8" fill="#fff" fill-rule="nonzero"/><path fill="#d2dceb" d="M33.141 177.805h71.899v21.184H33.141z"/><path d="M77.69 190.964H60.492a.8.8 0 01-.8-.8v-3.535a.8.8 0 01.8-.8H77.69a.8.8 0 01.8.8v3.535a.8.8 0 01-.8.8" fill="#fff" fill-rule="nonzero"/><path fill="#d2dceb" d="M33.141 205.068h71.899v103.841H33.141z"/><path d="M77.69 218.227H60.492a.8.8 0 01-.8-.8v-3.535a.8.8 0 01.8-.8H77.69a.8.8 0 01.8.8v3.535a.8.8 0 01-.8.8" fill="#fff" fill-rule="nonzero"/><g fill-rule="nonzero"><path d="M176.787 39.567h-9.28V45.4h10.961v4.539h-16.862V25.462h16.896v4.556h-10.995v5.16h9.28v4.389zm13.18 1.731h-3.194v8.64h-5.901V25.463h9.633c2.903 0 5.172.645 6.808 1.933 1.637 1.289 2.455 3.11 2.455 5.464 0 1.704-.345 3.116-1.034 4.237-.689 1.12-1.768 2.028-3.236 2.723l5.111 9.868v.252h-6.322l-4.32-8.641zm-3.194-4.555h3.732c1.121 0 1.964-.295 2.53-.883.566-.588.849-1.41.849-2.463 0-1.053-.286-1.88-.857-2.48-.572-.6-1.413-.9-2.522-.9h-3.732v6.726zm25.654 4.555h-3.194v8.64h-5.901V25.463h9.633c2.903 0 5.172.645 6.808 1.933 1.637 1.289 2.455 3.11 2.455 5.464 0 1.704-.345 3.116-1.034 4.237-.689 1.12-1.768 2.028-3.236 2.723l5.11 9.868v.252h-6.321l-4.32-8.641zm-3.194-4.555h3.732c1.121 0 1.964-.295 2.53-.883.566-.588.849-1.41.849-2.463 0-1.053-.286-1.88-.858-2.48-.571-.6-1.412-.9-2.521-.9h-3.732v6.726zm37.287 1.462c0 2.387-.443 4.5-1.328 6.338s-2.143 3.253-3.774 4.245c-1.631.992-3.488 1.488-5.573 1.488-2.085 0-3.934-.48-5.548-1.438-1.614-.958-2.872-2.328-3.774-4.11-.902-1.782-1.376-3.827-1.42-6.136v-1.38c0-2.397.439-4.513 1.319-6.345.88-1.832 2.141-3.247 3.783-4.245 1.642-.997 3.511-1.496 5.606-1.496 2.074 0 3.923.493 5.548 1.479 1.625.987 2.889 2.39 3.791 4.212.902 1.82 1.359 3.908 1.37 6.262v1.126zm-6.002-1.025c0-2.432-.406-4.28-1.218-5.54-.813-1.261-1.976-1.891-3.489-1.891-2.958 0-4.522 2.219-4.69 6.657l-.017 1.799c0 2.399.398 4.242 1.194 5.53.796 1.29 1.978 1.934 3.547 1.934 1.491 0 2.639-.633 3.446-1.9.807-1.266 1.216-3.087 1.227-5.463V37.18zm18.14 4.118h-3.194v8.64h-5.901V25.463h9.633c2.903 0 5.172.645 6.808 1.933 1.637 1.289 2.455 3.11 2.455 5.464 0 1.704-.345 3.116-1.034 4.237-.689 1.12-1.768 2.028-3.236 2.723l5.11 9.868v.252h-6.321l-4.32-8.641zm-3.194-4.555h3.732c1.121 0 1.964-.295 2.53-.883.566-.588.849-1.41.849-2.463 0-1.053-.286-1.88-.857-2.48-.572-.6-1.413-.9-2.522-.9h-3.732v6.726zm39.742 3.631h2.488v4.37h-2.488v5.195h-5.666v-5.194h-9.465l-.336-3.463 9.801-15.77v-.05h5.666v14.912zm-10.07 0h4.404v-7.532l-.353.572-4.051 6.96zm32.042-.437c0 3.306-.743 5.856-2.228 7.649-1.485 1.793-3.578 2.69-6.279 2.69-2.723 0-4.83-.903-6.321-2.707-1.49-1.804-2.236-4.35-2.236-7.632v-4.472c0-3.306.743-5.856 2.228-7.65 1.485-1.792 3.584-2.69 6.296-2.69s4.813.903 6.304 2.708c1.491 1.804 2.236 4.354 2.236 7.649v4.455zm-5.665-5.195c0-1.76-.23-3.074-.69-3.942-.459-.87-1.188-1.303-2.185-1.303-.975 0-1.684.403-2.127 1.21-.443.807-.681 2.029-.714 3.665v6.254c0 1.827.229 3.163.689 4.009.459.847 1.188 1.27 2.185 1.27.964 0 1.676-.412 2.135-1.236.46-.824.695-2.115.707-3.875v-6.052zm23.569 5.632h2.488v4.37h-2.488v5.195h-5.665v-5.194h-9.465l-.336-3.463 9.801-15.77v-.05h5.665v14.912zm-10.07 0h4.405v-7.532l-.354.572-4.051 6.96z" fill="#ff5e69"/><path d="M146.069 74.813V61.627h3.59c1.592 0 2.735.269 3.43.807.695.537 1.042 1.42 1.042 2.65 0 1.402-.475 2.5-1.425 3.296-.951.796-2.269 1.194-3.956 1.194h-.828v5.239h-1.853zm1.853-6.655h.757c1.111 0 1.969-.256 2.575-.767.605-.51.908-1.232.908-2.164 0-.79-.237-1.355-.712-1.693-.476-.34-1.268-.508-2.379-.508h-1.149v5.132zM166.8 69.77l-2.245-5.684-2.254 5.684h4.499zm1.978 5.043l-1.434-3.653h-5.586l-1.452 3.653h-1.737l5.229-13.186h1.853l5.149 13.186h-2.022zm16.785-.357c-1.597.457-2.99.686-4.178.686-2.096 0-3.704-.597-4.824-1.791-1.119-1.193-1.679-2.904-1.679-5.131 0-2.186.567-3.886 1.701-5.1 1.135-1.215 2.726-1.822 4.776-1.822 1.342 0 2.738.199 4.187.597v1.728c-1.818-.618-3.21-.927-4.179-.927-1.425 0-2.531.485-3.318 1.453-.787.968-1.181 2.33-1.181 4.089 0 1.74.422 3.093 1.266 4.058.843.965 2.025 1.447 3.545 1.447.624 0 1.298-.11 2.023-.33V69.12h1.861v5.336zm6.815.357V61.627h7.368v1.399h-5.497v4.232h4.606v1.38h-4.606v4.776h5.88v1.399h-7.751zm22.935 0V61.627h1.835l6.637 10.183V61.627h1.604v13.186h-1.827l-6.646-10.183v10.183h-1.603zm23.04.329c-1.829 0-3.301-.634-4.414-1.902-1.114-1.268-1.671-2.944-1.671-5.03 0-2.095.56-3.772 1.679-5.028 1.12-1.256 2.615-1.884 4.486-1.884 1.865 0 3.359.626 4.481 1.88 1.123 1.253 1.684 2.925 1.684 5.015 0 2.132-.561 3.824-1.684 5.074-1.122 1.25-2.643 1.875-4.561 1.875zm.027-1.4c1.348 0 2.39-.484 3.127-1.455.736-.971 1.104-2.342 1.104-4.112 0-1.716-.369-3.058-1.109-4.026-.739-.968-1.762-1.453-3.069-1.453-1.313 0-2.337.486-3.074 1.457-.736.97-1.104 2.32-1.104 4.049 0 1.723.365 3.077 1.096 4.063.73.985 1.74 1.478 3.029 1.478zm14.673 1.071V63.026h-4.677v-1.4h11.225v1.4h-4.677v11.787h-1.871zm19.445 0V61.627h7.367v1.399h-5.496v4.419h4.615v1.38h-4.615v5.988h-1.871zm19.343.329c-1.83 0-3.301-.634-4.415-1.902-1.113-1.268-1.67-2.944-1.67-5.03 0-2.095.56-3.772 1.679-5.028 1.12-1.256 2.615-1.884 4.486-1.884 1.865 0 3.359.626 4.481 1.88 1.123 1.253 1.684 2.925 1.684 5.015 0 2.132-.561 3.824-1.684 5.074-1.122 1.25-2.643 1.875-4.561 1.875zm.026-1.4c1.349 0 2.391-.484 3.127-1.455.737-.971 1.105-2.342 1.105-4.112 0-1.716-.37-3.058-1.109-4.026s-1.762-1.453-3.069-1.453c-1.313 0-2.337.486-3.074 1.457-.736.97-1.104 2.32-1.104 4.049 0 1.723.365 3.077 1.095 4.063.731.985 1.741 1.478 3.029 1.478zm11.838-12.115h1.871v8.32c0 1.326.245 2.289.735 2.892.49.603 1.27.904 2.339.904 1.045 0 1.786-.283 2.223-.85.436-.568.654-1.528.654-2.882v-8.384h1.64v8.357c0 1.799-.37 3.109-1.11 3.929-.739.819-1.916 1.229-3.532 1.229-1.645 0-2.86-.425-3.644-1.274-.784-.85-1.176-2.162-1.176-3.938v-8.303zm17.572 13.186V61.627h1.835l6.638 10.183V61.627h1.603v13.186h-1.826l-6.646-10.183v10.183h-1.604zm17.659 0V61.627h4.383c1.307 0 2.363.146 3.167.437.805.29 1.501.784 2.089 1.479.933 1.105 1.399 2.56 1.399 4.365 0 2.192-.579 3.89-1.737 5.096-1.158 1.206-2.789 1.809-4.891 1.809h-4.41zm1.871-1.4h2.396c1.711 0 2.923-.46 3.635-1.38.766-.98 1.149-2.296 1.149-3.947 0-1.55-.377-2.767-1.131-3.652a3.48 3.48 0 00-1.639-1.11c-.636-.198-1.592-.298-2.869-.298h-1.541v10.388z" fill="#277fd9"/></g><defs><linearGradient id="_Linear1" x1="0" y1="0" x2="1" y2="0" gradientUnits="userSpaceOnUse" gradientTransform="rotate(36.284 -308.798 567.62) scale(28.8881)"><stop offset="0" stop-color="#343a44"/><stop offset="1" stop-color="#142138"/></linearGradient><linearGradient id="_Linear2" x1="0" y1="0" x2="1" y2="0" gradientUnits="userSpaceOnUse" gradientTransform="translate(315.303 304.315) scale(28.888)"><stop offset="0" stop-color="#343a44"/><stop offset="1" stop-color="#142138"/></linearGradient><linearGradient id="_Linear3" x1="0" y1="0" x2="1" y2="0" gradientUnits="userSpaceOnUse" gradientTransform="scale(-31.3136 31.3136) rotate(-48.897 -1.56 19.568)"><stop offset="0" stop-color="#343a44"/><stop offset="1" stop-color="#142138"/></linearGradient><linearGradient id="_Linear4" x1="0" y1="0" x2="1" y2="0" gradientUnits="userSpaceOnUse" gradientTransform="translate(369.07 214.203) scale(95.7752)"><stop offset="0" stop-color="#343a44"/><stop offset="1" stop-color="#142138"/></linearGradient></defs></svg>