<svg viewBox="0 0 48 48" xmlns="http://www.w3.org/2000/svg" fill-rule="evenodd" clip-rule="evenodd" stroke-linejoin="round" stroke-miterlimit="1.414"><style>@media (prefers-color-scheme:dark){path:nth-of-type(1){fill:#666}path:not(:nth-of-type(1)){fill:#fff}}</style><path d="M22.866 40.034l4.782-.004-.044-31.043 9.135.043V5.034H11.545v4.041l11.356.003-.035 30.956z" fill="#999"/><path d="M1.454 5.034l-.007 37.875 10.098.016-.009-4.048-4.806-.015.02-29.785 4.782-.01-.021-4.032-10.057-.001zm35.296 0l-.011 4.035h4.582l.038 29.803-4.577.022.004 4.031h9.789L46.54 5.034h-9.79z"/><path d="M34.37 37.915l2.624-.023-.021-15.803-9.352-.004-.004 3.107 5.764.01s.242 10.3-9.381 10.046c-9.623-.253-9.607-8.151-9.777-12.23-.171-4.079 1.494-12.087 9.777-12.149 8.283-.063 8.015 5.708 8.646 6.117.037.024 3.579.033 3.579.033S36.107 7.308 24 7.312c-1.725.001-13.452-.116-13.826 16.045C9.847 37.478 21.06 38.906 24 38.684c2.887-.219 4.818-.06 9.365-4.563.114-.113 1.005 3.794 1.005 3.794z"/></svg>