<?xml version="1.0" encoding="UTF-8" standalone="no"?><!DOCTYPE svg PUBLIC "-//W3C//DTD SVG 1.1//EN" "http://www.w3.org/Graphics/SVG/1.1/DTD/svg11.dtd"><svg width="100%" height="100%" viewBox="0 0 48 48" version="1.1" xmlns="http://www.w3.org/2000/svg" xmlns:xlink="http://www.w3.org/1999/xlink" xml:space="preserve" xmlns:serif="http://www.serif.com/" style="fill-rule:evenodd;clip-rule:evenodd;stroke-linejoin:round;stroke-miterlimit:1.41421;"><path d="M22.866,40.034l4.782,-0.004l-0.044,-31.043l9.135,0.043l0,-3.996l-25.194,0l0,4.041l11.356,0.003l-0.035,30.956Z" style="fill:#999;"/><path d="M1.454,5.034l-0.007,37.875l10.098,0.016l-0.009,-4.048l-4.806,-0.015l0.02,-29.785l4.782,-0.01l-0.021,-4.032l-10.057,-0.001Z"/><path d="M36.75,5.034l-0.011,4.035l4.582,0l0.038,29.803l-4.577,0.022l0.004,4.031l9.789,0l-0.035,-37.891l-9.79,0Z"/><path d="M34.37,37.915l2.624,-0.023l-0.021,-15.803l-9.352,-0.004l-0.004,3.107l5.764,0.01c0,0 0.242,10.3 -9.381,10.046c-9.623,-0.253 -9.607,-8.151 -9.777,-12.23c-0.171,-4.079 1.494,-12.087 9.777,-12.149c8.283,-0.063 8.015,5.708 8.646,6.117c0.037,0.024 3.579,0.033 3.579,0.033c0,0 -0.118,-9.711 -12.225,-9.707c-1.725,0.001 -13.452,-0.116 -13.826,16.045c-0.327,14.121 10.886,15.549 13.826,15.327c2.887,-0.219 4.818,-0.06 9.365,-4.563c0.114,-0.113 1.005,3.794 1.005,3.794Z"/></svg>