<svg viewBox="0 0 449 311" fill-rule="evenodd" clip-rule="evenodd" stroke-linejoin="round" stroke-miterlimit="1.414" xmlns="http://www.w3.org/2000/svg"><path d="M431.641 144.543c2.929 2.93 5.371 5.859 7.324 9.766 6.836 12.207 8.789 33.203 9.765 42.48.489 17.09-3.418 43.457-7.812 48.34-3.418 1.953-21.484 27.344-33.691 34.668-3.418 1.953-8.301 2.441-13.672 4.394-8.789 3.418-14.649 7.325-29.785 6.348-45.899-3.418-90.332-26.367-125.489-39.062-13.183 23.437-62.5 48.828-62.5 48.828s-16.601 4.394-24.414 6.347c-4.394.977-15.137 1.953-22.461 1.953-3.906 0-7.812-2.441-11.718-1.953-3.418.489-6.836 2.93-9.766 3.418-14.16.489-40.527-10.742-40.527-10.742l-20.02-14.648-11.719-11.719s-16.113-16.602-22.461-31.738c-1.953-4.883-6.836-10.254-8.3-14.649-1.954-4.883-1.954-14.16-3.418-20.019-5.372-26.856 2.441-47.364 18.066-64.942 12.695-6.836 20.996-14.648 36.133-20.996 21.972-9.277 42.48-27.344 72.265-28.808 4.395-18.067 12.207-25.879 22.461-36.621 8.789-9.278 20.996-20.02 31.739-27.833C202.637 11.242 238.77.012 269.043.012c21.973 0 37.109 5.859 53.711 12.695 15.137 5.859 28.32 14.16 41.016 21.484 0 0 24.414 14.161 36.132 47.852 2.93 8.301 19.532 24.902 23.438 34.668 0 0 2.93 6.348 3.906 13.184.977 6.835 2.442 12.207 4.395 14.648z" fill="#423334"/><clipPath id="a"><path d="M431.641 144.543c2.929 2.93 5.371 5.859 7.324 9.766 6.836 12.207 8.789 33.203 9.765 42.48.489 17.09-3.418 43.457-7.812 48.34-3.418 1.953-21.484 27.344-33.691 34.668-3.418 1.953-8.301 2.441-13.672 4.394-8.789 3.418-14.649 7.325-29.785 6.348-45.899-3.418-90.332-26.367-125.489-39.062-13.183 23.437-62.5 48.828-62.5 48.828s-16.601 4.394-24.414 6.347c-4.394.977-15.137 1.953-22.461 1.953-3.906 0-7.812-2.441-11.718-1.953-3.418.489-6.836 2.93-9.766 3.418-14.16.489-40.527-10.742-40.527-10.742l-20.02-14.648-11.719-11.719s-16.113-16.602-22.461-31.738c-1.953-4.883-6.836-10.254-8.3-14.649-1.954-4.883-1.954-14.16-3.418-20.019-5.372-26.856 2.441-47.364 18.066-64.942 12.695-6.836 20.996-14.648 36.133-20.996 21.972-9.277 42.48-27.344 72.265-28.808 4.395-18.067 12.207-25.879 22.461-36.621 8.789-9.278 20.996-20.02 31.739-27.833C202.637 11.242 238.77.012 269.043.012c21.973 0 37.109 5.859 53.711 12.695 15.137 5.859 28.32 14.16 41.016 21.484 0 0 24.414 14.161 36.132 47.852 2.93 8.301 19.532 24.902 23.438 34.668 0 0 2.93 6.348 3.906 13.184.977 6.835 2.442 12.207 4.395 14.648z"/></clipPath><g clip-path="url(#a)"><path d="M239.746 245.617c.488-.488 0-.488 0-.488l-.488-.488c.488-.489-1.465-1.953-1.465-.977-.488-.488-.488 0-.488 0 0 .488 0 .488-.489.977-.488 0-.488 0-.488.488h-.488v.488s.488.488 0 .488c-.488.489 0 .489 0 .489s.488.488 0 .488l.976.977h.977c.488 0 .488 0 .977-.489 0 0 .488-.488.488 0l.488-.488c.488-.488 0-.488 0-.488.488-.489.488-.489 0-.977zm-103.027 44.434c-.489 0-.489.488-.489.976.489-.488.489-.976.489-.976zm-19.531-5.371c0 .976 0 .976.488.976 0 .489 0 .489.488.489 0 .488.488.488.488 0h.489c.488 0 .488 0 .488-.489.488 0 .488 0 .488-.488v-.977c0-.488 0-1.953-.488-1.953-.488-1.465-.977-2.441-3.418-2.441v-1.465c-.977 0-.977-.488-1.465-.488-.488-.977-.976-2.442-2.93-1.953l-.488 2.929c1.465.489 3.906.977 5.371 1.953-2.441 0 0 3.418.489 3.907zm99.121-54.688c-1.465-.488-1.465-.976-3.418-1.465-.977.489-2.442 1.953-2.442 3.418 1.953.977 3.906 0 5.86-1.953zm-.489 15.137c0 .488 0 .976-.488.976 0 .489 0 1.465-.488 1.465-.977-.488-.977 1.953 0 1.953 0 .489 0 .977.488.977 0 .488 0 .488.488.488 0 .489.977.489.977 0 .488 0 1.465 0 1.465-.488.488 0 .488 0 .488-.488.488 0 .488-.489.488-.977.489 0 .489 0 .489-.488v-.977c-.489 0-.489-.976-.489-1.465-.976-.488-1.953-.488-3.418-.976zm32.227-12.695c.488-.489.488-.489 0-.977.488-.488 0-.488 0-.488.488-.489 0-.489 0-.489.488-.488 0-.488-.488-.976.488-.488 0-.488-.489-.977l.489-.488c-.489-1.465 0-3.418-1.954-4.883-1.464-.488-3.417.489-4.882 1.465l-.489 4.883c-.488.488-1.464 1.465-.976 1.953l-.488.488c-1.465-.976-3.418-3.418-4.883-3.418-.489-.488-.977-.976-1.465-.488-.488-.488-.488-.488-.977 0-.488-.488-.488-.488-.976 0-.489-.488-.489 0-.489 0-.488-.488-.488 0-.488 0-.488-.488-.488-.488-.976 0-.489-.488-.489-.488-.977 0-.488-.488-.488-.488-.977 0-.488-.488-.488 0-.488 0-1.953-.977-3.906 0-5.371.488-.976 3.418 1.953 4.395 5.371 6.836-.488.489.488.977.977 1.465 1.953 3.418 5.859.488 8.301 0 .976 0 .488.488.976.977l2.93-1.465.488.488c.488-.488 0-.976 0-1.465.488-.488 0-.488-.488-.976l.488-.489c.977.977 1.953-.488 1.953.977 1.465-.977 2.93-.488 3.906-.977.489.489.489 0 .977-.488.488.488.977 0 1.465-.976zm-12.207 12.207c-.488-.489 0-.977.488-.489 0 0 .488-.488.488 0 0-.488.489-.976 0-1.953-.488 0-.488 0-.488-.488-.488 0-.488 0-.488-.488-.488 0-1.465 0-1.465-.489h-2.93c0 1.465-2.441 0-1.953 1.953h-.488c0 .489 0 .489-.488.489 0 .488 0 .488-.489.488 0 .488-.488.488-.488 0-.488 0-.976 0-.976-.488h-1.465c.488.976.976 1.953.488 2.929 0 1.465-.977 1.954-1.953 2.442 0 1.953 1.465 2.441 2.93 3.418-3.418.976-6.836 1.953-9.278 3.906-.488 0-.976 0-.976.488-.977 0-.977.489-.977.977-1.465.976-2.93.976-2.93 3.418 0 .488 0 .488.489.488v.488l.976.977c0 .488 0 .977.488.977 0 .488 0 .488.489.488 0 .976-.489 2.93.976 2.441-.488.977 1.953.977 1.953 0 1.465 0 1.465-1.953 1.465-3.418.489 0 .489-.488.489-.976 1.464-1.465 3.906-2.93 5.859-3.906-.488 0-.488 0-.488-.489.488 0 .488-.488.488-.976 1.953-4.395 3.906-7.813 7.812-10.254 0-.977.977-.489 1.954-.489.488-.976.488-.976.488-1.464zm16.601-41.504c.489.488.489 0 .489 0 .976 1.465 1.953 0 2.441-.977-.488-.976-.976.488-1.465 0 .489-.488.489-.488 0-.976 3.907 0 9.766-.489 14.649 1.464l-5.371-2.929c0-1.953 1.464 0 2.441-1.465l-.488-.488-.489-.489s-.488.489-.488 0c-.488 0-.488-.488-.488-.488s-.488.488-.488 0l-.489-.488s-.488.488-.488 0l-.488-.489s-.489.489-.489 0l-.488-.488s-.488.488-.488 0l-.488-.488-.489-.488s-.488.488-.488 0l-.488-.489-.489.489c.977.976 1.465.976-.488 2.441-1.953-.488-3.418 0-5.371 0 .977.488 1.953 1.465 1.953 1.953l-.976.977c-.489-.489-.489 0-.489 0-1.464 0-1.953 2.441-2.441 3.418.977 2.441 1.953.976 2.441 0zm-144.043 65.918c.977.976 2.93 1.953 3.907.488-.489-1.465-3.418-2.93-3.907-.488zm6.836 1.465v-.977c-.976-1.465-2.441 1.465 0 .977zm110.84-27.833c-1.465-1.953-4.883-2.929-6.347-3.417-.489-.489-.489 0-.489 0-.976-.977-1.465.488-1.953.976-1.465 0-2.441 2.93-1.953 3.418.488.488.977.488.977.977h-.489c0-.489 0-.489-.488-.489 0-.488.977-.488 1.953-.488l1.953 1.953v.488h1.465c.488-.976 1.465.977 1.953.977.489.488 1.465.977 1.953.488v-.488c-.488-2.441.977-3.418 1.465-4.394zm-1.953-22.461c.488.488.488-.489.977-.489.488.489 1.464-.488.976-.976.488-.489 0-.489 0-.489.977-.976 2.442.977 3.418 1.465l1.465 1.465c-.488.488 0 .488.488.488.489.489.977.977 1.465.489.488.488.488 0 .488 0 .489 0 .977 0 1.954.976.488-.976.976-.976 1.464-.976.489.488.489 0 .489 0 .488.488.976-.489 1.465-.977.488.488.488 0 .488 0 .488.488.488 0 .976-.488.489.488.489 0 .489-.488.488-.489.488-.489 0-.977 1.464-.977-1.465-2.441-1.953-1.465-.489-.488-.977-.976-1.465-.488-.489-.488-.489 0-.489 0-.488-.488-.488 0-.976.488-.488 0-.977 0-1.465-.488-.488-.488-.488 0-.488 0-.489-.488-.489-.488-.977 0h-.976c-.489-.488-.489 0-.489 0-.488-.488-.488 0-.488 0l-.488.488c-.489-.488-.977 0-1.465 0l-.488-.488c-4.395-3.418-9.278 2.93-4.395 2.93zm-53.223 29.296c.489 1.465 3.907 1.954 4.883.977.489 0 .489 0 .489-.488.488 0 .488 0 .488-.489.488 0 .488-1.464 0-1.464 0-.489 0-1.465-.488-1.465-.489 0-.489 0-.489-.489-.488 0-.488 0-.488-.488v-.488c-1.465-.977-2.441-2.441-4.395-2.93-2.441 1.953-.488 5.86-2.441 8.789 1.465 1.953 1.465-.488 2.441-1.465zm75.684-36.621c-.488.489 0 .489 0 .489l-.488.488c.976.976.976 1.953 2.441 3.418 2.93-1.953 6.348-2.442 9.766 0 2.441-4.395.488-7.324-3.418-9.766-1.953.977-3.906.489-5.371 1.953-.489-.488-.489 0-.489 0 0 .489-.488 0-.488 0-.488-.488-.488 0-.488 0-.488-.488-1.953 1.465-.977 1.465-.488.489 0 .489 0 .489l-.488.488c-.488.488-.488.488 0 .976zm-44.922 38.086c-.488 0-.488-.976-1.465-.976-.488 1.465 1.465 1.953 1.465.976zm51.758-45.41c-1.953-.976.977 1.465 0 0zm-91.797 44.922c-.488 0-.976-.488-1.953-.488-.488.488-.488 1.465-.488 2.441 1.953.488 1.953-1.465 2.441-1.953zm-13.184 37.109c.489 0 0-.488 0 0zm6.348 1.954c0-.977-2.93-.977-2.93 0h-.976c0-1.954-1.953 0-.488.488.488.976-1.465 1.465.488 1.465l.976.976c.489 0 .489.488.489.977h1.953c0-.489.488-.489.976-.489-.488-1.464-.488-.976 0-2.441 0-.976 0-.976-.488-.976zm-13.672-3.907c.489.489.977.489.977 0 1.465.489 1.953-.488 3.418-.488 0 .488.976.488 1.465.488 0 .977 2.929.977 2.441-.488 2.441-3.906 0-9.277-4.394-7.813 0 2.93-.489 3.907-4.395 3.418 0-.488-.488-.488-.977-.488l-6.347-5.371c0-.488 0-1.465-.489-1.465-.488-4.883 1.954-7.812-.488-10.254-.488 1.953-3.418 1.953-3.418 4.883-.488 0-.488 0-.488.488-.488 1.954 0 3.907 0 5.86v.488c-.488 0-.488.488-.488.977-.489 0-.489.976-.489 1.464-.976-.488-.976 1.954 0 1.954 0 .976.489.976.977.976.977 2.93-1.953 5.371.977 6.836 2.929-2.93 5.371-2.441 8.3 0-.488-1.953 2.93 0 3.418-1.465zm46.875-33.203l1.953-7.812c5.371 3.906 5.86-2.442 10.254-3.418.489-.977.489-2.442 1.953-3.418-1.464-.489 0-1.465-.976-2.93-1.465-.488-2.442-1.953-3.906-1.953 1.464.976 1.953 3.906 1.953 4.883-4.395.976-8.301 2.929-11.719.976-.977 0-.977-.976-2.441-.488 0 .488 0 .488-.489.488h-.488c0 .489 0 .489-.488.489v1.953c.976-.489.976 1.953 0 1.953-.489.488.488 2.441-.489 2.441 0 .488 0 1.465-.488 1.465-.976 0 0 1.465-.488 2.441-1.465 1.954 3.906 6.348 5.859 2.93zm-25.879 7.324c.489-1.464-.488-1.464-.488-2.929-4.883-.977-6.836 7.324-9.277 4.394 0-.488 0-.488-.489-.488 0-.488 0-.488-.488-.488 0-.489 0-.489-.488-.489 0-.488-.977-.488-1.465-.488 0-.488-1.465-.488-1.465 0-.488 0-.488 0-.488.488-.488 0-.488 0-.488.489-.489 0-.489 0-.489.488v.488c-.488 0-.488.488-.488.977h-.488c.488.976-.977 2.929.976 2.929h.489v.489c-1.953-.489-1.953.976-3.418 1.953-1.953 0-4.395-.977-5.86 0v1.953c2.442 1.465 3.418-1.465 6.348-.977 0 .977.977 1.465 1.953 1.954-.488.976 1.953.976 1.953 0 .977 0 0-2.442.488-3.418.489 0 .489 0 .489-.489 0-.488.488-.488.976-.488 3.418 0 3.418 3.906 6.836 3.418 1.953-3.418 1.465-8.789 5.371-9.766zm93.75-12.207c0 .489.977.489 1.465.489 0-.977-.488-.489-1.465-.489zm5.86 12.207c.488 0 .488-.488 0 0zm-132.813 35.157c0-.977.489-.977.489-1.465-.977-.977-3.907-.489-4.395.976-.488 0-.488 0-.488.489h-.489l-2.929 2.441c-.489-1.465-4.395-1.465-2.93.488 0 .489 0 .489.488.489 0 .976-2.441.488-2.929 1.464-.489 0-.489 0-.489.489-.488 0-.488 0-.488.488-.488 0-.488 0-.488.488v.489c-.488 0-.488 0-.488.488.488 1.465.976 2.441 2.441 2.93 0-1.954.976-2.442.976-3.418v-.977c.489 0 .489-.977.489-1.465l2.929-.488v-1.465h.977c0 1.953 1.953 0 3.418.488 0 .489 0 .489.488.489 0 .488.489.488.977.488.488.976 2.93.488 3.418.976.976-1.953-.977-2.929-.977-4.882zm78.614-26.856c.976-1.953 1.953-5.371 1.464-7.324.489 0 .489-.488 0-.488-.488-1.465-.976-.977 0-2.442l-1.953-.488c0-.488 0-1.465-.488-1.465v-1.465c.977 0 .977-.488.977-1.465 2.929 0 1.464-4.394.976-5.371-2.441.489-3.418-.488-4.394-.976-.977.488-1.465 1.465-2.442 2.441 1.465.488.488 1.953.977 3.906l-2.93 1.465c-.488-1.465-.977-2.929-2.441-3.906 0 2.441-2.442-.977-3.418.977-.489 0-.977 0-.977.488-1.953.976-.488 4.883 0 5.859-.976.977-2.93.977-5.371.977 0-.488-.977-.488-.977 0h-.488c-1.465-.977-3.418-.977-4.394 0 0 2.441.488 3.906 2.441 4.394 0 .489.977.489 1.465.489 0 .488.488.488.488 0 .488 0 .977 0 .977-.489 3.418-1.465 6.347 1.465 9.277 0 .977 0 .977-.488.977-.976.488-1.465 2.441-1.465 4.394-1.465.977.976.977 2.441.977 4.394-.489 0-.489.977-.489 1.465-.488 0-.488.977 0 .977-.488 2.441 3.418.976 3.418 2.93-.976 1.953-2.929 2.929-3.418 4.882 1.954.489 3.907 3.907 1.954 5.86-1.465.976-2.93 2.441-3.418 4.394l5.859-3.906-.488-1.953h2.929c1.465-4.395 6.348-5.371 6.348-10.742-2.93 1.465-7.324 1.465-7.812-.977zM91.797 292.979h-1.953c-.489.977 1.953.977 1.953 0zm42.48-44.433c-.488-.977-.488-.977-.976-.977 0-.488 0-.488-.489-.488.489-.977-.976-.488-.976-1.465-2.93 1.953-6.348 3.418-7.324 7.324-.977 2.442-4.395 2.442-6.836 1.465-.489 1.465-1.465 2.93-2.93 3.418h-.488c0-.488-.977-.488-.977 0h-5.859c0 1.953 0 3.418.488 4.883 1.465.977 2.442.977 4.395.977 0 .488 0 .488.488.488 0 .488.488.488.977.488 0 .488.976.488 1.464.488 0 .977 2.442.977 2.442 0 .488 0 .488 0 .488-.488.488 0 .977 0 .977-.488.488 0 .488 0 .488-.488.488 0 .976 0 .976-.489.489 0 .489 0 .489-.488 4.394-2.441 9.765-13.672 15.136-6.836-.488-.488-.976-.488-.976.488-.488 0-.488 1.465 0 1.465 0 .489.488.489.976.489h.977c2.93.976-.488-4.395 2.93-3.418 0-4.395-5.371-2.93-5.86-6.348zm-49.316 49.805c-.488 0-.977 0-.977-.489-.488 0-1.464 0-1.464-.488-1.954-.488-1.465 1.953-2.93 2.441 0 .489 0 1.465-.488 1.954-.489.976.488 1.464.488 2.441l1.465.488h.488c0-.488.488-.488.977-.488 0-.488.488-.488 1.464-.488 0-.489.489-.489.977-.489 0-.488.488-.488.976-.976 0-.488 0-.488.489-.488 0-.489 0-.489.488-.489-.488-.976-.977-1.465-1.953-2.929.488.488 0 .488 0 0zm-46.387-22.95s0-.488.488-.488c-.488 0-.488 0-.488.488zM5.859 227.062c-.488-.489 0-.489 0-1.465-.488 0-.976-.489-.976-.489 0 .489 0 .977.488.977.977 2.93 3.418 6.348 5.371 9.277.488-.488.488-.976.488-1.953.977-3.418-3.418-4.883-5.371-6.347zm41.504 50.292c0-.488-.488-.488 0 0-.488-.976-.488-.976-.976-.976 0-.488-.489-.488-.977-.488 0-.489 0-.489-.488-.489 0-.488-.977-.488-.977 0h-.976c0-2.441-1.465-.488-2.93-1.464 0 2.441.488 2.929.977 3.906l4.882 4.883v-.489c.489 0 .489-.488.489-.976.488 0 .488-.489.488-.977.977.488.977-2.93.488-2.93zm27.344 17.579c0 .976.977 1.464 1.465 1.953 1.465-.489 2.441-.489 3.906-.489 0 .489 0 .489.488.977.489 0 1.465-.488 1.954-.977l-3.907-3.418c-1.953 0-3.418.977-3.906 1.954zm17.09 11.23c0-.488 0-.976-.488-.976-.489.488 0 .976.488.976zm.488.488c0-.488-.488-.488 0 0zm0-14.16c.488 0 .488-.488.488-1.465h-.976c.488.489.488.489.488 1.465zm-.488.488c.488 0 .976 0 .976-.488-.976 0-.976 0-.976.488zm-19.043 2.93v-.976c-.488.488-.488 1.464-.488 2.441h1.464c-.488-.977-.488-1.465-.976-1.465zm14.16 4.883c.977 1.465 2.441 2.93 4.395 4.395 0-3.418-1.954-4.883-4.395-5.86v1.465zm-6.836-.977v-2.441c-1.465.488-2.93 0-3.906-.488l-2.93.488v.488c.977 0 0 1.465.488 2.442.489 0 .489 0 .489.488.488 0 .976 0 .976.488.489 0 .489.489.489.977.488 0 .976 0 .976.488.488 0 .977 0 .977.488.488 0 .488.489.488.489l1.465.488c0-.977.488-1.465.488-1.953-.488-1.465-.488-2.442 0-2.442zm17.09-6.347c3.418-.489 2.93-2.442 5.859-3.418 1.953.488 1.953-.977 2.442-1.953.976 0 .976-.489.976-.977.489 0 .489-.976 0-.976v-.489h.489c.488-1.465-2.93-.976-2.93-.488-.488 0-.488 0-.488.488-.489 0-.977 0-.977.489-.488 0-.488 0-.488.488-.489 0-.489.488-.489.976-.488 0-.488 0-.488.489-.488 0-.976 0-.976.488-.489 0-.489 0-.489.488H96.68c0-.488-.489-.488-.977-.488 0-.488 0-.977-.488-.977.488-3.418-1.465-4.882.488-5.859-2.441.488-3.418-.488-5.371-.977-2.93.977-5.371 4.395-8.301 3.907-.488-2.442-1.465-4.883-1.953-7.813-1.465-.488-1.953 0-3.418 0 .488-2.441-3.418-2.93-3.906-3.418v.977c-.977-.488-.977 1.953 0 1.953l2.93.976.488 4.395c1.465 0 2.441 1.465 2.93 2.93-.489 0-.489 0-.489.488v.488c-.488 0-.976 0-.976.489-.489 0-1.465 0-1.465.488-.488 0-1.465 0-1.465.488-.488 0-.977 0-.977.488-.488 0-.488 0-.488.489-3.418 0-3.418-3.418-8.301-2.93-.488 1.465-1.464 2.93 0 3.906.489 0 .489.489.489.977.488 0 .976 0 .976.976l.977.977c.488-.488 1.953 0 2.441.488.488 0 .977 0 .977.488.488 0 .488 0 .488.489.488 0 .977 0 .977.488 0 0 .488 0 .488.488.488-1.465 1.465-2.441 1.953-3.418 1.465.489 2.441.977 3.418 1.465a6.78 6.78 0 014.395 0c.488 1.465.488 2.93-.489 3.906.489.489.977.489.977.977v.488c.488 0 1.465 0 1.465.489.488 0 .976 0 .976.488.488 0 .488 0 .488.488l.977.488-2.93-3.906c.977-.976 0-3.418 1.953-3.418 0-.488 0-.488.489-.488.976-.488 1.953-1.465 3.418-1.465.488 0 1.465 0 1.953.488h.976v-.976c.489 0 .489.488.489.976.976 0 1.465 0 1.465.489l.976.976c.488 0 .977 0 1.465.977 0-.489.488-.489 0 0zm-7.813-1.465c0 .488 0 .976.489.976 0-.488 0-.976-.489-.976zm127.93-24.414c0-.488-.488-.488 0 0-.976 0-.488.488 0 0-.488.976 0 .488 0 0zm-83.496 25.39c-.488 0-.488.489-.488.977.488 0 .488-.488.488-.977zm0 2.442c0 .488 0 1.465.488 1.465 0-.977 0-1.465-.488-1.465zm0 1.465c0 .488 0 1.465.488 1.465 0-.977.489-1.465-.488-1.465zm0-1.465v-1.465c-.977 0-.977 1.465 0 1.465zm2.93 4.394c.976 1.465 2.929 4.395 4.883 3.418-1.954-.976-2.442-3.418-4.883-3.418zm-2.442-1.953c0 .977.489.977.977.977 0-.488-.488-.488-.977-.977zm11.719 5.86c-.976-.489-2.93-2.442-3.906-.977 3.906 0 1.953 3.418 4.394 4.395-.488-.977-1.953-1.953-.488-3.418zm-10.742-4.883c0 .488.488.488.976.488 0-.488-.488-.488-.976-.488zm-113.77-68.36c.489-1.953-1.464-3.417-3.418-2.441-3.418.488-1.953 6.836-.488 9.277 0 .489 0 .489.488.489-.488 1.465.977.976 1.954.976.976.977 3.417.489 3.906-.488.488-2.93-.977-3.906-1.953-5.371 0-.977.488-2.442-.489-2.442zm.977 15.137c0 .977 0 1.953.976 1.953 0-.488.489-.976.489-1.953h-1.465zm3.418.977c2.441-.489 2.93 0 4.883-1.465-.489-1.465-1.465-2.93-3.418-2.93.488 1.465-1.465.489-1.953 1.465.976 1.465-.489 1.953.488 2.93zm11.23 9.277c-.976-.976-1.464-.976-2.929-1.465h-1.465c-.977-.976-3.418 0-4.883-.488 0-.488-.488-.488-.488 0-.489 0-.489.488-.489.977-.488 0-.488.488-.488.976-.488 0-.488 0-.488.488-.488 0-.488 0-.488.489-.489 0-.489.488 0 .488v1.465c-1.465-.488-.489.976 0 .976 0 .489 0 .489.488.489 0 .488 0 1.464.488 1.464s.977 0 .977.489h1.953c0-.489.488-.489.976-.489.977-.488 2.442-.488 2.93-1.953.488 0 .977 0 .977-.488.976 0 1.465-.488 1.953-.976.488 0 .488 0 .488-.489.488 0 .488 0 .488-.488.489 0 .489 0 .489-.488 0 0 0-.977-.489-.977zm63.965 41.504c-2.929 0-4.883 2.93-3.418 4.395 4.883.488 6.348 3.906 10.254 3.906 0-.977 0-1.465.488-1.953-2.441-1.465-5.371-3.418-7.324-6.348zm-87.402-80.078l-.977-.488c-.488 0-.488 0-.488-.489h-.488c-.489 0-.489 0-.489.489-.976 0-.976.488-.976.976-.488 0-.488 0-.488.488v.489c-.977-.489-.977 1.953 0 1.953l.976.976c0 .489.977.489.977 0h.488c0-.488 0-.488.488-.488 0-.488 0-.488.489-.488.488 0 .488 0 .488-.488 0-.489 0-.489.488-.489v-1.465c-.488 0-.976-.488-.488-.976zm34.668 67.871l1.953 1.465v-1.465c-1.465.488-1.953 0-1.953 0zm-25.391-28.32c-.488-.977-.488-.977-.976-.977l1.464 1.953c0-.488 0-.976-.488-.976zm166.504 27.343v1.465c1.465 0 2.442 0 2.442-1.465-.489-.488-1.954-.488-2.442 0zm-16.601-7.324c.488 0 0-.488 0 0-.489-.976-.489-.976-.977-.976-1.465-.489-4.395-.489-4.395-3.418 0-.489 0-.489-.488-.489 0-.488 0-1.464-.488-1.464 0-.489 0-.489-.488-.489 0-.488-.977-.488-1.465-.488 0-.488-.977-.488-.977 0-.488 0-.976 0-.976.488-.489 0-.489 0-.489.489h-.488c-.488 0-.488 0-.488.488h-.488c-.489 0-.489 0-.489.488-.976 0-1.465 0-1.465.977-.488 0-.488 0-.488.488-.976 0-.976 2.441 0 2.441 0 .489 0 .977.488.977 0 .488 0 .976.489.976l1.953 2.93c.976 1.953 0 3.418-2.93 2.93 0 .976-.976.976-.488 2.441.976.977 1.953-.488 3.418 0 .488-1.465.488-2.929 1.953-3.418 0 .977 2.441.977 2.441 0l-.488-1.953c.488 0 .488 0 .488-.488 1.953-.488 1.465 1.953 1.465 3.418 2.93.488 4.395 0 6.836-.977-.488-.488.977-4.883-.976-5.371zm8.3-8.301c0-.488-.976-.488-.976 0l-3.418.489c-1.465-.489-2.442-3.418-3.906-2.442-.977 4.883 4.882 6.348 7.812 8.789.488-1.464 3.418-3.418 1.953-5.859-.488-.977-.976-.977-1.465-.977zm-20.019 30.274v1.465c.976.488.976-1.465 0-1.465zm37.597-27.344c0-.488-.976-.488-1.464-.488 0-.488-.977-.488-.977 0-2.441.488-3.418-.488-4.883.976-2.441 0-4.394.489-4.394 2.93 2.441.977 3.418 3.418 7.324 3.418-.488-1.465.488-.977.488-2.441 2.442 0 5.86-1.465 4.883-3.418 0-.977-.488-.977-.977-.977zm-35.644 28.32c.976 0 0 2.442 1.465 2.442.976-.977-.489-3.418-1.465-2.442zm-1.953-9.765c-.488 0-1.465 0-1.465.488h-.488c0 .977-.489 2.93.976 2.441 0 .489.489.489.489 0 .976-.488 0-2.441.488-2.929zm66.894-29.785c0-.489-.976-.489-.976 0-.489 0-.489.488 0 .488 0 .488.976.488.976-.488zm-20.507-5.86c.976 1.465.976-1.953 0 0zm-66.407 42.481c0 .488.489.488 0 0zm8.301 10.254l2.441-.489h.489c.488-.976.488-1.953 0-2.929-.489 1.953-1.465 2.929-2.93 3.418zm-7.812-13.672c-.489 0-.489.488-.489.976.489 0 .489-.488.489-.976zm-.489 3.418v-2.93c-.488.488-.488 3.418 0 2.93zm1.465-3.907c-.488 0-.976 0-.976.489.488 0 .976 0 .976-.489zm1.465 5.372c1.953 2.441 4.394 4.394 8.301 4.882-1.465-2.441-4.395-5.371-8.301-4.882zm-2.441-.977c0 .488.488.488 0 0 .488.488.488 0 0 0zm.488.488c0 .489.976.489 1.953.489 0-.489-.977-.489-1.953-.489zm-93.75-31.25c0 .489.976.489 1.465.489-.489-.489-.977-.489-1.465-.489zm26.855-4.394c-.488 0-.488.488-.488.976 0 .489 0 .977-.488.977 0 .488 0 .976-.489.976v1.465c.489 0 1.465 0 1.465.489h.489c0-.489.488-.489.976-.977v-.488c-.488 0-.488-.489 0-.489v-1.464c0-.977 0-1.954.488-2.442-.976.488-2.441 0-1.953.977zm0-1.465c.489 0 .977 0 1.465-.488-.488 0-.976 0-1.465.488zm-.976-7.324c.488-1.953-1.465 0 0 0zm26.367 13.183c.976-.488 1.953-.976 1.953-2.929-1.465-1.465-3.418 0-4.394.488 0 1.465.488 2.441 2.441 2.441zm-2.93-2.441c0-.488-.488 0 0 0zm-28.808-18.067c1.953-.488 2.441.489 3.906.489l-.488-1.953c-1.465-.489-3.418.488-4.883.976.488.977-.488 2.442.488 2.93v.488c.488 0 .488 0 .977.488-.489-1.464-.489-2.441 0-3.418zm-1.465.977v-.977c.488 0 .488 0 .488-.488.977 0 .488 1.953-.488 1.465zm4.883 13.672c-1.465.976-2.93-.488-3.418.976-.489 0-.489.489-.489.977-.488 0-.488 0-.488.488-.976 0-.976.489-.976.977h-.489c.489 1.953-.488.976-.488 3.418 5.859 1.953 8.789-3.906 6.348-6.836zm17.578 4.394h.976c0 .977 2.93.977 2.442-.488 2.929.488 3.418-1.953 3.906-3.906.488 0 .488-.488.488-.977.489 0 .489-.976.489-1.464.488 0 .488-1.465 0-1.465 0-.489 0-.489-.489-.489 0-.488 0-.976-.488-.976 0-.488 0-.488-.488-.488 0-.489 0-.489-.489-.489 0-.488 0-.488-.488-.488 0-.488-1.465-1.465-.976 0-.977 0-.977.488-.977.977-2.93.488-4.395 2.929-3.906 6.835-.977.489-.977 3.418 0 3.418zm-16.602-14.16v-4.394h-.488c0 .488 0 .976.488 1.465-1.465.976-2.93 1.464-4.883.976 0 .977.977 1.465 1.953 1.953 0-.488 0-.488.489-.488v.488h2.441zm1.465 3.907c0-.489 0-1.465-.488-1.465l.488 7.324h.488c0-.488.977-.488 1.465-.488 1.465-.489 2.442-.489 3.906 0 0 .488.977.488.977 0 .488 0 .488 0 .488-.489 2.442-2.929 3.418-6.347 4.883-10.742.488 0 .488 0 .488-.488 3.418-1.465-3.418-1.953-3.906-.977-.976.489-2.441-.488-2.93.489h-.488c-.488 1.953-2.93 1.464-2.441 3.906-.489 0-.489.488-.489.976-1.953-.488-1.464.977-2.441 1.954zm24.902 27.832c.489-3.907 7.325-3.907 7.325-6.836-.489.976-.977-1.465-.977-2.442-5.859.489-8.301 5.371-8.789 9.278 0-.489 0-.977.488-.977-.488 1.465.977.488 1.953.977zm34.18-20.997c.488 0 0-.488 0 0zm9.277-11.23c0 .488-.488 0 0 0zm-.976-.488c-.488 1.465 0-1.465-1.465-.489l-.488 3.418c1.465 0 3.418-1.464 1.953-2.929zm-36.133 44.922c-.977.488-.977 1.953-.488 1.953.976 1.953 2.929-.977 1.465-1.953 0-1.465-.977-.977-.977 0zm43.945-40.528c.489 0 .489-.488 0 0 .977-.488.977-.488.977-.976.488 0 .488 0 .488-.489.488 0 .488 0 .488-.488.977 0 .977-.488.977-1.465 1.465-1.465 0-3.906-1.465-3.906-.488 0-.488 0-.488-.488v-.489c-.977-.488-2.93-.488-4.395-.488-.976 2.93-1.464 6.836 0 9.278-.488 1.464 3.907.976 3.418-.489zM49.805 267.101c.976 0 .976-.489.976-.977-.488 0-.976.488-.976.977zm58.105 2.441c0 .488-.488 0 0 0zm-59.57-2.93v-1.465c-.977 0-.977 1.465 0 1.465zm0-2.441c-.488 0-.488.488-.488.976.488 0 .488-.488.488-.976zm.488-.977c-.488 0-.488.489-.488.977.488 0 .488-.488.488-.977zm-13.672-21.972c-.976 0-.976 2.441.489 1.953.488 2.441 2.441-.488 3.417-.488.489-1.954-2.929-3.418-3.906-1.465zm15.625 22.461v1.464c.489 0 .489-1.464 0-1.464zm-8.789-18.067c-.488.977-.488.977-.488 1.465 1.465.488 1.465-1.465.488-1.465zm10.742-6.347v-1.465c-.488 0-.488-.489-.488-.977-.488 0-.488 0-.488-.488h-.488c0 .488-.489.488-.489 0H48.34c-.977.976-1.953 1.465-1.953 3.418.976.976 2.929 1.953 4.394.976 0-.488 0-.488.489-.488.488-.488.488-.488 1.464-.976zm7.813 50.293c.976 0 1.953.976 2.93 0l-.489-1.954c-1.953-.488-2.441.489-2.441 1.954zm-4.883-41.016c0 .488 0 .976.488.976l3.418 8.79c8.301 0 4.395-14.649-2.929-12.696 0 .488 0 .488-.489.488 0 .489 0 .489-.488.489 0 .488 0 .488-.488.488 0-.977 0 1.465.488 1.465zm3.906 14.16c-.976-.488-1.465 0-1.953.488-.488 0-.488 0-.488.489-.488 0-.488 0-.488.488-.489 0-.489 0-.489.488-.976 0 0 1.465-.488 2.442.488.488.977.488 1.953.488v.488l1.953.488c.489 1.465 3.418.977 4.395.489.488-3.907-1.953-4.883-4.395-6.348zm-7.324-.977c0 .489.488.489.977.489 0-.489-.489-.489-.977-.489zm-1.465 3.907c.489.488.489 0 0 0zm5.371-3.907c-.488 0-.976 0-.976.489l.976-.489zm-.976.489h-1.953c-.489.488 1.953.488 1.953 0z" fill="#3d2f30"/></g><path d="M252.93 196.301c-28.321 20.996-58.106 40.527-102.051 48.828-8.301 1.465-14.649 5.859-25.391 6.348-5.859 0-11.23-1.954-18.066-1.954-6.836-.488-15.137 1.954-24.414 0-8.789-1.464-23.926-10.253-37.11-14.648-7.324-2.441-14.16-1.953-20.019-4.395-9.277-3.906-20.996-14.648-23.438-22.46-6.347-21.973 7.325-52.735 19.043-61.524 2.93-1.953 6.348-1.953 9.766-4.394 6.348-4.395 9.766-11.231 14.648-13.672 3.907-1.953 8.301-2.442 12.696-4.395 10.742-4.883 20.508-12.695 31.738-18.066 12.207-5.86 25.879-7.813 45.41-9.766 36.133-3.418 70.313-12.695 103.028-14.648 17.089-.977 18.554 4.394 30.761 9.765l10.742 1.953c2.442 1.465 6.348 5.372 9.766 7.325 4.883 2.929 8.789 2.929 10.742 5.371 3.906 4.883 5.86 16.601 4.395 24.414-.977 4.883-5.86 8.301-10.742 13.672-3.907 4.394-6.348 10.742-9.766 14.648-9.766 13.184-25.391 21.973-31.738 37.598z" fill="#6c4317"/><path d="M252.93 193.371c-28.321 20.996-58.106 40.527-102.051 48.828-8.301 1.465-14.649 5.86-25.391 6.348-5.859 0-11.23-1.953-18.066-1.953-6.836-.489-15.137 1.953-24.414 0-8.789-1.465-23.926-10.254-37.11-14.649-7.324-2.441-14.16-1.953-20.019-4.394-9.277-3.906-20.996-14.649-23.438-22.461-6.347-21.973 7.325-52.735 19.043-62.012 2.93-1.953 6.348-1.953 9.766-4.394 6.348-4.395 9.766-11.231 14.648-13.672 3.907-1.953 8.301-2.442 12.696-4.395 10.742-4.883 20.508-12.695 31.738-18.066 12.207-5.86 25.879-7.813 45.41-9.766 36.133-3.418 70.313-12.695 103.028-14.648 17.089-.977 18.554 4.394 30.761 9.765l10.742 1.953c2.442 1.465 6.348 5.372 9.766 7.325 4.883 2.929 8.789 2.929 10.742 5.371 3.906 4.883 5.86 16.601 4.395 24.414-.977 4.883-5.86 8.301-10.742 13.672-3.907 4.394-6.348 10.742-9.766 14.648-9.766 13.672-25.391 22.461-31.738 38.086z" fill="#a3b34f"/><path d="M158.691 98.645c19.043-3.907 44.434-8.79 66.895-10.743 16.601-1.464 23.926 3.418 36.133 9.766 11.719 5.859 30.273 14.648 26.367 34.18-.488 2.441-13.184 20.996-16.113 24.414-3.907 4.883-11.719 9.277-17.09 16.113-6.836 8.301-11.719 17.578-17.09 22.461-3.418 2.93-8.301 3.418-12.695 6.348-6.348 4.394-10.743 11.23-18.067 14.648-3.418 1.465-7.324 1.465-10.742 3.418-7.324 3.418-20.508 11.719-30.762 13.672-3.418.976-8.3-.488-11.718 0-8.789 1.465-16.602 5.859-25.391 6.348-11.231.488-24.902.976-36.133-.977-3.906-.488-7.324-4.395-12.695-6.348-27.832-9.277-68.848-8.789-61.524-53.222.977-4.883 5.371-9.766 8.301-16.114 2.442-4.882 2.442-10.254 4.395-12.695 2.441-3.418 8.789-5.859 13.672-9.766 10.253-7.812 19.531-15.136 34.179-20.019l80.078-21.484z" fill="#dde072"/><path d="M167.48 101.086c54.2-19.531 127.442 16.113 90.333 63.477-6.348 7.812-18.067 19.042-25.391 24.414-4.883 3.906-10.254 4.394-16.113 7.324-14.161 7.812-25.879 14.648-40.528 19.043-16.601 4.883-33.691 4.394-53.222 7.324-6.836.977-13.184 3.906-20.02 4.395-29.297 2.441-56.152-8.79-65.43-25.391-11.23-19.531 11.231-45.899 23.438-50.781l106.933-49.805z" fill="#eaeca2"/><path d="M233.887 154.797c-.489-10.742-12.696-28.32-20.996-36.133-8.789-8.301-25.879-16.113-29.786-18.066-2.929-.489-4.882-1.953-8.3-1.953-33.203-5.86-62.989 5.371-80.078 22.949-3.907 2.929-7.325 6.347-7.325 9.277 0 0 0 .488-.488.488s-.976.977-2.93 1.954c-12.207 9.765-19.531 42.968-12.695 50.781 3.418 3.906 5.371 4.394 6.348 5.371 17.09 8.301 32.226 19.043 57.617 20.508h20.996c1.465 0 4.395 0 5.859-.489 4.883-.488 2.442-.488 5.86-.976 28.808-4.395 67.383-24.903 65.918-53.711z" fill="#6c4317"/><path d="M135.254 210.461c-25.391-1.465-40.527-12.695-57.617-20.508-.977-.976-2.93-1.465-6.348-5.371-6.836-7.812.488-41.504 12.695-50.781 2.442-1.953 2.93-2.442 3.418-1.953-1.465-6.348 17.578-17.578 20.996-17.09-3.906 1.953-4.882.976-8.3 6.347 7.812-2.929 14.16-5.371 20.019 0 3.906 0 4.395-4.394 6.348-6.347.488-3.906-2.442-3.906-1.953-7.324 3.906 0 5.371 3.418 8.301 4.394 1.464-.976 2.929-11.23-.977-10.742 2.441-.977 3.906-1.465 8.301-1.953 1.953.976-.489.976-1.953.976-4.395 6.836-.977 18.067 8.3 17.09 2.93-2.929 0-12.207 7.325-10.742-.977 3.418.976 3.906.976 6.348 7.813-3.907 17.09-6.348 23.438-11.719 0 1.953 0 9.766 4.394 10.742-2.441 10.254-5.371 19.531-16.113 20.996-.488 7.813 1.465 18.067-5.371 19.043-.977-7.324 2.93-14.16 0-20.019-6.348.976-6.836 7.324-9.766 11.718h-8.301c7.813 3.907-12.207 12.207-1.953 20.997 4.395-1.465 11.719-5.86 16.114-.977-.489 2.93-1.954 4.883-4.395 6.348 1.953 2.441 4.883 3.906 5.371 7.324 1.465 0 1.953-4.395 1.953 0 1.465-.977 1.465-3.418 3.418-4.395 4.883 5.371 7.813-1.953 11.719 3.418 2.441-1.953.488-7.812-1.953-8.301.976-4.394 4.883 0 6.348-1.953.976-5.371-3.418-5.371-3.418-9.765 1.464-1.465 4.394-.977 7.324-.977-1.465 5.86 1.953 6.348 4.394 8.301 0 3.418-2.929 3.906-1.953 8.301 1.465 2.441 5.371.976 3.418 5.371h4.395c1.464-4.395 4.394-6.348 7.324-11.719-2.442-2.441-.977-9.766-4.395-11.719 1.465-3.418 4.883-5.859 8.301-4.394.977 6.347-2.441 8.789-4.394 12.695 2.441 2.93 7.324 1.465 10.742 5.371 1.953 0 1.465-2.929 4.394-1.953l-1.953-5.371c-.976.977-2.441.977-4.394.977.976-3.907 9.765-4.883 7.324-8.301 4.394-4.395 12.207 1.465 13.672 6.347-1.953.977-7.813 6.348-1.953 7.325-6.348 12.695-8.789 14.648-18.067 23.437-2.441-2.93-4.883-2.93-7.324-3.418-2.93 3.906-8.301 5.86-16.113 5.371-1.465 5.371-3.907 9.766-7.324 12.696-.977-.489-1.954-.977-3.418-.977 0-2.441 0-4.883.976-6.348-9.277 1.953-17.09 6.836-21.484 13.184h-20.508zm-42.481-75.684c-1.953-.488 0-1.464 0-3.418-3.418.977-5.859 8.301-5.371 9.766 1.953-1.953 2.442-4.883 4.395-6.348 0 .489.488.977.976 0z" fill="#633c11"/><path d="M442.871 197.766v-4.395c0-1.465 0-2.93-.488-4.394l-.488-4.395v-.977l-.489-3.417c0-.489 0-.977-.488-1.465l-.488-2.93c0-.488 0-.977-.489-1.465 0-.976-.488-1.953-.488-2.441l-.488-1.465c-.488-.977-.488-1.953-.977-2.442 0-.488 0-.976-.488-.976-.488-.977-.977-2.441-.977-3.418-3.418-9.277-10.742-16.113-13.671-25.391-1.954-5.859-2.442-13.672-5.372-20.019-4.882-10.742-15.136-19.043-20.996-29.785-2.441-4.395-4.882-8.789-6.836-13.672-3.906-7.324-7.812-15.137-13.183-21.485-4.883-5.371-10.254-10.254-16.113-15.136-13.184-10.254-28.809-18.067-44.434-24.414-17.09-6.836-32.715-9.766-49.805-9.766-10.254 0-20.996 1.465-33.203 4.395-10.742 2.441-19.531 5.371-26.855 8.789-14.16 6.836-24.414 15.625-36.621 27.343-10.254 9.766-20.996 18.067-28.809 29.297-1.465 1.953-2.441 4.395-3.418 6.348l-2.93 7.324c-.488 1.465-.976 2.441-.976 3.906h2.441l9.278-.976 2.929-.977 20.996-2.441 17.578-2.93c18.067-3.418 35.157-6.348 52.247-7.324h3.906c6.836 0 10.742.976 14.648 2.93 13.672 2.441 25.391 8.3 35.156 16.601 4.395.977 8.301 2.442 11.719 4.395 15.137 27.832-2.929 58.105-14.648 77.636-2.442 7.813-11.231 8.789-14.649 16.114-4.394 8.3-3.418 20.507-10.742 27.832-3.906 5.859-11.719 7.812-13.672 15.136-3.418 2.442-8.789 1.954-9.277 6.836v1.953c16.113 9.278 36.133 14.649 56.152 22.461 17.09 6.348 44.922 16.602 66.895 14.649 8.789-.488 10.742-4.395 17.09-7.324 4.394-1.953 9.765-2.93 12.695-4.395 9.277-4.883 14.648-13.183 23.437-20.996 8.301-7.812 17.09-15.625 20.997-24.414 3.906-7.813 4.882-17.09 4.882-26.367-.488-1.465-.488-1.465-.488-1.953z" fill="#6c4317"/><path d="M437.012 163.586c-3.418-9.277-10.742-16.113-13.672-25.391-1.953-5.859-2.442-13.672-5.371-20.019-4.883-10.742-15.137-19.043-20.996-29.785-6.836-11.719-11.231-24.903-20.02-35.157-15.137-17.089-38.086-30.273-60.547-39.062-27.344-10.742-50.781-12.695-83.008-5.371-31.25 6.836-44.921 18.554-63.476 36.133-15.137 14.16-31.25 24.902-36.133 46.875h2.441l9.278-.977 2.929-.977 20.997-2.441 17.578-2.93c18.066-3.418 35.156-6.347 52.246-7.324h3.906c6.836 0 10.742.977 14.648 2.93 13.672 2.441 25.391 8.301 35.157 16.601 4.394.977 8.301 2.442 11.718 4.395 15.137 27.832-2.929 58.105-14.648 77.637-2.441 7.812-11.23 8.789-14.648 16.113-4.395 8.301-3.418 20.508-10.743 27.832-3.906 5.859-11.718 7.324-13.671 14.648-2.93 3.418-9.278 1.465-9.766 7.325 16.113 9.277 36.133 14.648 56.152 22.461 17.09 6.347 44.922 16.601 66.895 14.648 8.789-.488 10.742-4.395 17.09-7.324 4.394-1.953 9.765-2.93 12.695-4.395 9.277-4.883 14.648-13.183 23.437-20.996 8.301-7.812 17.09-15.625 20.997-24.414 7.812-19.043 4.882-44.433-1.465-61.035z" fill="#a3b34f"/><path d="M413.574 141.125c-2.929-6.836-2.929-14.16-5.371-20.02-4.394-10.253-14.648-18.554-20.019-28.808-6.348-11.719-10.743-23.926-20.02-34.18-18.066-19.043-57.129-41.992-87.402-44.433-41.016-2.93-82.032 17.578-103.028 38.086-12.695 12.695-26.855 21.484-29.785 37.109l20.996-2.441 17.578-2.93c18.067-3.418 35.157-6.348 52.247-7.324h3.906c6.836 0 10.742.976 14.648 2.929 13.672 2.442 25.391 8.301 35.156 16.602 4.395.976 8.301 2.441 11.719 4.394 15.137 27.832-2.929 58.106-14.648 77.637-2.442 7.813-11.231 8.789-14.649 16.113-4.394 8.301-3.418 20.508-10.742 27.832-3.906 5.86-12.207 7.325-14.16 15.137 0 .488-1.465 1.465-1.465 1.465-.488 0 .977.488 1.953.488 28.809 9.278 59.571 26.367 93.262 29.785 20.996 1.954 32.715-4.882 46.875-11.718 2.93-1.465 6.836-4.883 9.766-7.325 12.695-11.23 29.296-31.25 30.761-52.246 1.465-24.902-11.23-40.039-17.578-56.152z" fill="#dde072"/><path d="M382.813 114.758c-18.067-26.856-66.407-63.477-94.239-69.824-33.691-7.813-69.336 1.953-87.89 17.089-2.93 2.442-12.207 11.231-13.672 18.067 0 .488-2.442 3.418-.489 4.394h.977c18.066-3.418 35.156-6.347 52.246-7.324h3.906c6.836 0 10.743.977 14.649 2.93 13.672 2.441 25.39 8.301 35.156 16.601 4.395.977 8.301 2.442 11.719 4.395 15.137 27.832-2.93 58.105-14.649 77.637-2.441 7.812-11.23 8.789-14.648 16.113-4.395 8.301-3.418 20.508-10.742 27.832 7.324 6.348 17.578 7.324 26.367 10.742 16.113 5.86 31.738 16.113 52.246 10.742 16.602-4.394 27.344-15.136 37.109-29.785 5.371-8.301 12.696-14.648 14.649-27.832 2.93-26.855-1.465-55.664-12.695-71.777z" fill="#eaeca2"/><path d="M328.125 113.293c0-.488 0-1.465-.977-2.441-.976-3.418-2.441-6.836-3.906-10.254-3.418-9.766-7.812-16.114-14.16-21.973-9.766-8.301-21.973-16.602-37.109-18.066H252.93c-15.625-1.465-30.762 8.3-31.739 9.765-1.464.977-6.836 3.906-9.277 6.836-.488.488-.976 1.465-1.465 2.93 9.766-1.465 20.02-2.93 29.297-3.418h3.906c9.766 0 14.161 2.441 19.043 5.371 2.442 1.465 4.883 2.93 8.789 4.395.977.488 2.93.488 4.395.976 1.953 0 4.394.488 6.348 1.465 1.464.976 3.418 2.441 4.882 3.906 1.465 1.465 3.418 2.93 4.883 3.906 1.953.977 3.906 1.954 5.371 2.442 2.442.976 4.395 1.465 5.86 3.418 3.418 4.394 5.371 13.183 5.371 21.484 0 2.93 0 5.371-.489 7.813-.488 2.929-1.953 4.882-4.394 7.324-.488 15.137-5.859 27.344-13.184 39.062 8.789-3.906 18.067-7.324 25.879-12.207 7.813-16.113 17.09-33.203 11.719-52.734z" fill="#949952"/><path d="M314.453 84.973c0 .488-.488 1.465-1.465 1.465-9.765-3.907-17.578-14.649-27.832-11.231-10.742 2.93-14.648-4.394-16.601-5.371-1.953-.977-4.883-1.953-4.883-1.953-7.324-3.418-7.813-1.465-7.813-1.465.977 2.441 4.883 1.465 5.371 2.93-1.953 2.441-5.371.488-6.347-2.93 0-.488-1.953 0-1.953 0s-18.555 1.953-18.555 9.766c-2.441-2.93-8.789-.489-7.324 1.464 4.394-.488 8.789-.976 12.695-.976h3.906c9.766 0 14.161 2.441 19.043 5.371 2.442 1.465 4.883 2.93 8.789 4.395.977.488 2.93.488 4.395.976 1.953 0 4.394.488 6.348 1.465 1.464.976 3.418 2.441 4.882 3.906 1.465 1.465 3.418 2.93 4.883 3.906 1.953.977 3.906 1.954 5.371 2.442 2.442.976 4.395 1.465 5.86 3.418 2.441 2.929 3.906 8.301 4.882 14.16 6.836 4.883 16.114 9.277 21.485 15.137v2.929c4.883-24.414-15.137-50.293-15.137-49.804z" fill="#b0ad51"/></svg>