<svg xmlns:xlink="http://www.w3.org/1999/xlink" viewBox="0 0 59.133 66.133" fill="#fff" fill-rule="evenodd" stroke="#000" stroke-linecap="round" stroke-linejoin="round" xmlns="http://www.w3.org/2000/svg"><use xlink:href="#a" x="1.067" y="1.067"/><symbol id="a" overflow="visible"><g stroke="none" fill="#e10098" fill-rule="nonzero"><path d="M5.184 48.776L2.837 47.42 29 2.1l2.347 1.357z"/><path d="M2.297 43.796h52.348V46.5H2.297z"/><path d="M29.516 60.44L3.334 45.324l1.357-2.347 26.182 15.117zm22.746-39.403L26.078 5.924l1.357-2.347 26.182 15.117z"/><path d="M4.698 21.03L3.34 18.683l26.206-15.12L30.903 5.9z"/><path d="M51.78 48.775L25.604 3.442l2.347-1.357 26.176 45.333zM4.373 16.882h2.714v30.234H4.373zm45.5 0h2.714v30.234h-2.714z"/><path d="M29.056 59.3l-1.184-2.052L50.645 44.1l1.184 2.052z"/><path d="M56.18 48a5.72 5.72 0 01-7.795 2.093 5.72 5.72 0 01-2.093-7.795 5.72 5.72 0 017.795-2.093A5.684 5.684 0 0156.177 48M10.65 21.704a5.72 5.72 0 01-7.795 2.093A5.72 5.72 0 01.762 16a5.72 5.72 0 017.795-2.093 5.72 5.72 0 012.093 7.795M.78 48a5.72 5.72 0 012.093-7.795 5.72 5.72 0 017.795 2.093 5.72 5.72 0 01-2.093 7.795C5.828 51.66 2.344 50.732.78 48M46.3 21.706a5.72 5.72 0 012.093-7.795 5.72 5.72 0 017.795 2.093 5.72 5.72 0 01-2.093 7.795 5.72 5.72 0 01-7.795-2.093M28.48 64c-2.308 0-4.388-1.4-5.27-3.522s-.394-4.586 1.238-6.217a5.703 5.703 0 019.738 4.037A5.72 5.72 0 0128.481 64m0-52.59a5.696 5.696 0 01-5.704-5.704 5.705 5.705 0 119.74 4.034 5.688 5.688 0 01-4.034 1.668"/></g></symbol></svg>