<svg xmlns:xlink="http://www.w3.org/1999/xlink" viewBox="0 0 55 59" fill="#fff" fill-rule="evenodd" stroke="#000" stroke-linecap="round" stroke-linejoin="round" xmlns="http://www.w3.org/2000/svg"><use xlink:href="#a" x=".5" y=".5"/><defs><linearGradient id="b" x1="9.53%" y1="85.55%" x2="89.82%" y2="14.29%"><stop offset="0%" stop-color="#fcee39"/><stop offset="100%" stop-color="#f37b3d"/></linearGradient><linearGradient id="c" x1="8.56%" y1="9.44%" x2="99.62%" y2="95.24%"><stop offset="0%" stop-color="#ef5a6b"/><stop offset="57%" stop-color="#f26f4e"/><stop offset="100%" stop-color="#f37b3d"/></linearGradient><linearGradient id="d" x1="90.08%" y1="91.49%" x2="17.94%" y2="26.56%"><stop offset="0%" stop-color="#7c59a4"/><stop offset="39%" stop-color="#af4c92"/><stop offset="77%" stop-color="#dc4183"/><stop offset="96%" stop-color="#ed3d7d"/></linearGradient><linearGradient id="e" x1="91.35%" y1="7.56%" x2="18.92%" y2="77.69%"><stop offset="0%" stop-color="#ef5a6b"/><stop offset="36%" stop-color="#ee4e72"/><stop offset="100%" stop-color="#ed3d7d"/></linearGradient></defs><symbol id="a" overflow="visible"><g stroke="none" fill-rule="nonzero"><path d="M52.398 31.7a2.04 2.04 0 00.664-1.414 2.057 2.057 0 00-1.943-2.163 2.155 2.155 0 00-1.458.485L12.664 48.87a4.367 4.367 0 00-2.074 1.8c-.613 1.023-.8 2.25-.5 3.402s1.05 2.14 2.084 2.734a4.54 4.54 0 004.722-.089c.1-.1.22-.134.32-.22l34.404-24.2c.267-.184.518-.4.75-.62z" fill="url(#b)"/><path d="M52.47 28.74L24.328 1.105A3.405 3.405 0 0018.412 3.4a3.38 3.38 0 00.916 2.345 4.68 4.68 0 00.533.437l29.755 25.473c.367.33.832.53 1.324.574a2.057 2.057 0 002.163-1.943 2.204 2.204 0 00-.622-1.544z" fill="url(#c)"/><path d="M25.233 26.258c-.045 0-17.393-13.686-17.748-13.906l-.795-.4a4.94 4.94 0 00-6.172 2.45 4.94 4.94 0 001.845 6.379c.277.17.574.303.884.4.175.1 20.042 8.296 20.042 8.296a1.895 1.895 0 001.942-3.224z" fill="url(#d)"/><path d="M21.788.001a3.59 3.59 0 00-2.03.664L2.2 12.495c-.045.045-.1.045-.1.1h-.045a4.92 4.92 0 001.193 8.615 4.84 4.84 0 004.592-.62c.294-.2.56-.437.795-.705L23.908 6.1a3.41 3.41 0 001.324-2.693A3.44 3.44 0 0021.786.001z" fill="url(#e)"/><path d="M15.3 16.5h22.515v22.515H15.3z" fill="#000"/><path d="M17.24 34.79h8.433v1.413H17.24zm-.086-12.36l.664-.62a.754.754 0 00.574.354q.4 0 .4-.53v-2.34h1.015v2.34a1.235 1.235 0 01-1.369 1.369 1.337 1.337 0 01-1.283-.574zm2.872-3.09h2.958v.84h-1.946v.565h1.765v.798h-1.765v.574h1.988V23h-2.958zm4.292.88H23.2v-.88h3.223v.884H25.32v2.782h-1.002zm-7.077 3.618h1.898c.364-.01.722.102 1.015.32.15.17.23.392.22.62a.866.866 0 01-.574.84.86.86 0 01.705.884c0 .62-.53 1.015-1.372 1.015h-1.9zm2.12 1.15c0-.223-.175-.32-.44-.32h-.664v.664h.62c.32-.045.485-.134.485-.35zm-.35 1.06H18.2v.664h.798c.32 0 .485-.134.485-.35.003-.223-.172-.3-.48-.3zm1.672-2.208h1.723a1.55 1.55 0 011.193.399c.22.22.337.527.32.84a1.22 1.22 0 01-.75 1.149l.884 1.276H22.9l-.75-1.104h-.447v1.1H20.7zm1.678 1.765c.35 0 .53-.175.53-.44 0-.32-.223-.44-.53-.44h-.66v.884z"/><path d="M25.1 23.838h.957l1.544 3.708h-1.104l-.265-.664h-1.414l-.265.664h-1.06zm.884 2.208l-.4-1.015-.4 1.015zm1.764-2.208h1.015V27.5h-1.015zm1.276 0h.925l1.5 1.947v-1.947h1.015V27.5h-.884l-1.54-1.978v2.03h-1.015zm3.532 3.137l.574-.664a1.74 1.74 0 001.193.44c.265 0 .44-.1.44-.265s-.134-.223-.62-.35c-.798-.176-1.372-.4-1.372-1.15 0-.664.53-1.193 1.413-1.193a2.36 2.36 0 011.5.485l-.52.708a2.01 2.01 0 00-1.015-.354c-.265 0-.35.1-.35.223 0 .175.134.223.62.35.84.175 1.372.44 1.372 1.15 0 .75-.574 1.193-1.5 1.193a2.33 2.33 0 01-1.726-.578z"/></g></symbol></svg>