<svg viewBox="0 0 77.16 100" xmlns="http://www.w3.org/2000/svg"><defs><clipPath id="a"><path d="M0 501.6V0h1863.8v501.6H0z"/></clipPath></defs><g fill="#83cd29" clip-path="url(#a)" transform="matrix(.27109 0 0 -.27109 -404.308 87.716)"><path d="M1633.7 2.64a24.65 24.65 0 00-12.33 3.301l-39.27 23.234c-5.86 3.28-3 4.44-1.07 5.117 7.83 2.715 9.4 3.34 17.76 8.074.87.488 2.02.305 2.92-.223l30.16-17.9c1.1-.605 2.64-.605 3.65 0l117.6 67.88c1.1.625 1.8 1.887 1.8 3.184v135.72c0 1.328-.7 2.57-1.82 3.242l-117.56 67.824a3.71 3.71 0 01-3.63 0l-117.53-67.844a3.78 3.78 0 01-1.86-3.222V95.297c0-1.297.72-2.527 1.85-3.145l32.22-18.613c17.48-8.738 28.2 1.555 28.2 11.894v134a3.39 3.39 0 003.4 3.4h14.92c1.86 0 3.4-1.496 3.4-3.4v-134c0-23.328-12.7-36.707-34.82-36.707-6.8 0-12.15 0-27.1 7.363l-30.84 17.754c-7.62 4.402-12.33 12.637-12.33 21.453v135.72c0 8.82 4.7 17.05 12.33 21.437l117.6 67.957c7.44 4.2 17.33 4.2 24.7 0l117.6-67.957c7.62-4.406 12.35-12.617 12.35-21.437V95.296c0-8.816-4.73-17.02-12.35-21.453l-117.5-67.906c-3.76-2.176-8.02-3.3-12.38-3.3m36.23 93.51c-51.47 0-62.25 23.622-62.25 43.438a3.384 3.384 0 003.4 3.387h15.2a3.41 3.41 0 003.38-2.879c2.3-15.48 9.14-23.293 40.26-23.293 24.77 0 35.32 5.605 35.32 18.75 0 7.578-3 13.203-41.5 16.972-32.18 3.184-52.08 10.293-52.08 36.036 0 23.73 20 37.882 53.53 37.882 37.68 0 56.32-13.078 58.68-41.132.1-.97-.25-1.895-.9-2.618a3.491 3.491 0 00-2.5-1.086h-15.27c-1.58 0-2.98 1.125-3.3 2.657-3.66 16.3-12.57 21.496-36.73 21.496-27.05 0-30.2-9.426-30.2-16.485 0-8.554 3.7-11.046 40.23-15.878 36.14-4.778 53.3-11.543 53.3-36.946 0-25.625-21.37-40.3-58.63-40.3"/></g></svg>