<svg xmlns:xlink="http://www.w3.org/1999/xlink" viewBox="-1 79.63 516 354.74" width="512" height="350.74" xmlns="http://www.w3.org/2000/svg"><defs><path d="M88.13 98.84c-1.94 13.67-19.22 15.28-28.4 3.84 10.04-2.5 18.9-3.47 28.4-3.84zm88.35 242.62c-17.94.18-42.27-5.9-72.1-24.85 24.1 34.58 52.47 54.46 82.56 63.12 57.8 16.62 69.05-12.63 124.76 6.47-8.34-13.4-25.15-19.7-42.04-23.08-17.05-3.42-28.87.7-42.76-5.46-11.87-5.4-11.1-17.48 13.8-20.13-23.46-15.35-34.33 3.62-64.23 3.93zm114.25-139.14c31.75 12.88 63.97 15.08 96.92 3.7 25.6-8.82 44-.2 53.54 24.64 1.56-30.07-15.23-43.2-29.3-50.03-30.16-14.63-63.06 11.2-99.74 8.06-24.37-2.1-46.27-7.16-72.58-27.54 12.58 17.44 26.93 30.52 51.17 41.16zm31.94 128.74c.3.56.4.85.48.85 28.38.01 60.64-4.18 85.4-30.87 16.23-17.5 18.38-27.7 49.47-22.27-21.12-16.9-56.7-13.84-82.03 9-10.3 9.3-18.5 20.5-33.17 32.84-5.78 5.03-14.83 10-20.16 10.46zm45.34-65.1c30.65-20.77 60.1-5.23 62.44-8.94-23.2-16.3-46.13-16.5-67.86-10.87-42.34 9.95-44.07 40.1-97.08 25.65 31 15.55 69.86 15.3 102.5-5.84zm-62.45-100.9c-24.88-9.46-36.1-38.2-91.07-37.4 14.34 20.75 76.84 64.08 123.68 38.4-5.3.1-17.3 4.16-32.6-1zM430.5 299.14c35.88-1.42 35.88 44.95 81.5 21.8-28-7.5-36.12-49.22-81.5-21.8zm-227.6-165.3C163 80.93 81.33 56.93 0 111.86c0 0 54.9-10.84 62 69.14 4 44.95-.03 59.14 16 87.26 43.5 76.34 114.27 57.43 114.27 57.43-39.8-5.67-55.6-33.26-60.27-55.1-2.33-12.34 5.8-26.3 26.27-25.54 20.82.77 36.6 25.57 63.14 55.98 36.62 45.9 91.3 26.5 130.23-7.88-1.98-5.85-20.64 3.48-39.4 3.26-29.7-.35-57.3-7.15-78.08-21.85-41.34-32.14-44.9-74.3-9.86-71.4 15.52.92 28.9 20.8 42.86 27.08 20 9 40.2 6.3 62.6-8.2-54.45 1.54-95.74-46.9-126.9-88.2zm66.7 257.08c35.44 8.66 39.73 43.55 74.23 40.22-18.15-8.4-15.15-43.72-74.23-40.22z" id="a"/></defs><use xlink:href="#a" fill="#f15523"/><use xlink:href="#a" fill-opacity="0" stroke="#000" stroke-opacity="0"/></svg>